<?xml version="1.0" encoding="utf-8"?>
<svg version="1.1" xmlns:xlink="http://www.w3.org/1999/xlink" width="16px" height="16px" xmlns="http://www.w3.org/2000/svg">
  <g transform="matrix(1 0 0 1 -421 -132 )">
    <path d="M 15.9914642857143 7.977362831858414  C 15.9914642857143 12.34798230088495  12.416571428571444 15.891327433628334  8.006857142857143 15.891327433628305  C 3.5969821428571436 15.891327433628305  0.02223214285714903 12.347964601769917  0.02223214285714903 7.977345132743352  C 0.02223214285714903 3.606672566371685  3.5969821428571436 0.06339823008849521  8.006857142857143 0.06339823008849521  C 12.416571428571444 0.06339823008849521  15.9914642857143 3.606672566371685  15.9914642857143 7.977362831858414  Z M 15.086607142857133 7.977362831858414  C 15.086607142857133 4.101929203539811  11.916892857142841 0.9602300884955639  8.006857142857143 0.9602300884955639  C 4.096821428571445 0.9602300884955639  0.9270714285714234 4.101858407079646  0.9270714285714234 7.977362831858414  C 0.9270714285714234 11.85279646017699  4.096821428571445 14.994477876106203  8.006857142857143 14.994477876106203  C 11.916892857142841 14.994477876106203  15.086607142857133 11.85279646017699  15.086607142857133 7.977362831858414  Z M 11.870071428571407 9.34044247787611  C 12.10608928571429 9.449893805309728  12.207303571428554 9.72769911504426  12.096875000000011 9.96164601769911  C 11.986910714285727 10.195150442477882  11.706160714285716 10.295451327433625  11.470571428571418 10.186035398230104  L 7.718500000000006 8.942778761061959  C 7.539035714285717 8.859716814159299  7.43912499999999 8.679061946902664  7.449214285714277 8.494389380530976  C 7.446946428571437 8.47569911504425  7.438285714285712 8.460176991150433  7.438285714285712 8.44093805309734  L 7.438285714285712 3.3036814159291907  C 7.438285714285712 3.045522123893818  7.649000000000001 2.8366017699115105  7.909464285714307 2.8366017699115105  C 8.16991071428572 2.8366017699115105  8.380625000000009 3.045522123893818  8.380625000000009 3.3036814159291907  L 8.380625000000009 8.18380530973451  L 11.870071428571407 9.34044247787611  Z " fill-rule="nonzero" fill="#d7d7d7" stroke="none" transform="matrix(1 0 0 1 421 132 )" />
  </g>
</svg>