<?xml version="1.0" encoding="utf-8"?>
<svg version="1.1" xmlns:xlink="http://www.w3.org/1999/xlink" width="15px" height="28px" xmlns="http://www.w3.org/2000/svg">
  <g transform="matrix(1 0 0 1 -1331 -123 )">
    <path d="M 14.742268041237113 13.354709418837675  C 14.91408934707904 13.541750167000668  15 13.756847027388108  15 14  C 15 14.243152972611888  14.91408934707904 14.45824983299933  14.742268041237113 14.645290581162325  L 2.731958762886598 27.71943887775551  C 2.5601374570446738 27.906479625918504  2.3625429553264605 28  2.1391752577319587 28  C 1.9158075601374573 28  1.718213058419244 27.906479625918504  1.5463917525773194 27.71943887775551  L 0.2577319587628866 26.316633266533067  C 0.08591065292096225 26.12959251837007  0 25.914495657982634  0 25.67134268537074  C 0 25.42818971275885  0.08591065292096225 25.21309285237141  0.2577319587628866 25.026052104208418  L 10.38659793814433 14  L 0.2577319587628866 2.973947895791583  C 0.08591065292096225 2.786907147628589  0 2.571810287241148  0 2.3286573146292593  C 0 2.0855043420173645  0.08591065292096225 1.8704074816299232  0.2577319587628866 1.6833667334669324  L 1.5463917525773194 0.28056112224448926  C 1.718213058419244 0.09352037408149538  1.9158075601374573 0  2.1391752577319587 0  C 2.3625429553264605 0  2.5601374570446738 0.09352037408149538  2.731958762886598 0.28056112224448926  L 14.742268041237113 13.354709418837675  Z " fill-rule="nonzero" fill="#000000" stroke="none" transform="matrix(1 0 0 1 1331 123 )" />
  </g>
</svg>